<mxfile host="app.diagrams.net" modified="2023-03-06T08:31:57.481Z" agent="5.0 (Windows NT 10.0; Win64; x64) AppleWebKit/537.36 (KHTML, like Gecko) Chrome/110.0.0.0 Safari/537.36" etag="TiLD7C0qXiJPuxNA2RmY" version="21.0.2" type="github">
  <diagram name="第 1 页" id="HbQ3u2ZMkalEOJgq2OQj">
    <mxGraphModel dx="803" dy="502" grid="1" gridSize="12" guides="1" tooltips="1" connect="1" arrows="1" fold="1" page="1" pageScale="1" pageWidth="827" pageHeight="1169" math="0" shadow="0">
      <root>
        <mxCell id="0" />
        <mxCell id="1" parent="0" />
        <mxCell id="1QjS9B5IPrSfoES4D203-9" value="" style="rounded=0;whiteSpace=wrap;html=1;dashed=1;" parent="1" vertex="1">
          <mxGeometry x="300" y="150" width="370" height="120" as="geometry" />
        </mxCell>
        <mxCell id="1QjS9B5IPrSfoES4D203-8" value="" style="rounded=0;whiteSpace=wrap;html=1;dashed=1;" parent="1" vertex="1">
          <mxGeometry x="300" y="50" width="370" height="83" as="geometry" />
        </mxCell>
        <mxCell id="1QjS9B5IPrSfoES4D203-2" value="对象关系映射器（ORM）" style="rounded=1;whiteSpace=wrap;html=1;" parent="1" vertex="1">
          <mxGeometry x="310" y="70" width="350" height="52" as="geometry" />
        </mxCell>
        <mxCell id="1QjS9B5IPrSfoES4D203-3" value="模式/类型" style="rounded=1;whiteSpace=wrap;html=1;" parent="1" vertex="1">
          <mxGeometry x="310" y="170" width="100" height="50" as="geometry" />
        </mxCell>
        <mxCell id="1QjS9B5IPrSfoES4D203-4" value="SQL表达式语句" style="rounded=1;whiteSpace=wrap;html=1;" parent="1" vertex="1">
          <mxGeometry x="420" y="170" width="110" height="50" as="geometry" />
        </mxCell>
        <mxCell id="1QjS9B5IPrSfoES4D203-5" value="引擎" style="rounded=1;whiteSpace=wrap;html=1;" parent="1" vertex="1">
          <mxGeometry x="540" y="170" width="120" height="50" as="geometry" />
        </mxCell>
        <mxCell id="1QjS9B5IPrSfoES4D203-6" value="连接池" style="rounded=1;whiteSpace=wrap;html=1;" parent="1" vertex="1">
          <mxGeometry x="600" y="229" width="62" height="35" as="geometry" />
        </mxCell>
        <mxCell id="1QjS9B5IPrSfoES4D203-7" value="连接配置" style="rounded=1;whiteSpace=wrap;html=1;" parent="1" vertex="1">
          <mxGeometry x="535" y="229" width="60" height="35" as="geometry" />
        </mxCell>
        <mxCell id="1QjS9B5IPrSfoES4D203-10" value="SQLAlchemy Core" style="text;html=1;strokeColor=none;fillColor=none;align=center;verticalAlign=middle;whiteSpace=wrap;rounded=0;" parent="1" vertex="1">
          <mxGeometry x="295" y="146" width="120" height="30" as="geometry" />
        </mxCell>
        <mxCell id="1QjS9B5IPrSfoES4D203-11" value="SQLAlchemy ORM" style="text;html=1;strokeColor=none;fillColor=none;align=center;verticalAlign=middle;whiteSpace=wrap;rounded=0;" parent="1" vertex="1">
          <mxGeometry x="295" y="43" width="120" height="30" as="geometry" />
        </mxCell>
        <mxCell id="1QjS9B5IPrSfoES4D203-12" value="数据库" style="rounded=1;whiteSpace=wrap;html=1;" parent="1" vertex="1">
          <mxGeometry x="540" y="290" width="120" height="40" as="geometry" />
        </mxCell>
      </root>
    </mxGraphModel>
  </diagram>
</mxfile>
